<?xml version="1.0" standalone="no"?>
<!DOCTYPE svg PUBLIC "-//W3C//DTD SVG 1.1//EN" "http://www.w3.org/Graphics/SVG/1.1/DTD/svg11.dtd" >
<!--
2013-9-30: Created.
-->
<svg>
<metadata>
Created by iconfont
</metadata>
<defs>

<font id="iconfont" horiz-adv-x="1024" >
  <font-face
    font-family="iconfont"
    font-weight="500"
    font-stretch="normal"
    units-per-em="1024"
    ascent="896"
    descent="-128"
  />
    <missing-glyph />
    
    <glyph glyph-name="fangdajing" unicode="&#58972;" d="M1024-174.096828l-37.903172-37.903172-228.327212 228.327212c-178.884808-159.171953-452.834725-153.509182-624.320534 18.003339-177.896494 177.896494-177.896494 466.323873 0 644.247078 177.896494 177.896494 466.323873 177.896494 644.247078 0 171.512521-171.512521 177.148581-445.435726 18.003339-624.320534L1024-174.096828zM739.766277 640.674457c-156.981636 156.981636-411.48581 156.981636-568.440735 0s-156.981636-411.48581 0-568.440735 411.48581-156.981636 568.440735 0S896.747913 483.719533 739.766277 640.674457z"  horiz-adv-x="1024" />

    
    <glyph glyph-name="iconfontoptionbutton" unicode="&#58950;" d="M512 810.666667c-235.642667 0-426.666667-191.026667-426.666667-426.666667s191.024-426.666667 426.666667-426.666667c235.64 0 426.666667 191.026667 426.666667 426.666667S747.64 810.666667 512 810.666667zM512 0c-212.08 0-384 171.925333-384 384 0 212.077333 171.92 384 384 384 212.074667 0 384-171.922667 384-384C896 171.925333 724.074667 0 512 0zM512 384m-234.666667 0a88 88 0 1 0 469.333333 0 88 88 0 1 0-469.333333 0Z"  horiz-adv-x="1024" />

    
    <glyph glyph-name="faqi" unicode="&#58929;" d="M727.342 291.018c12.148-9.66 31.588-4.828 41.308 9.662 4.86 7.246 4.86 14.49 4.86 21.736-2.43 7.246-7.292 14.492-12.15 19.32-17.008 9.658-34.018 21.736-53.456 28.98 24.296 24.152 43.736 50.716 55.888 82.112 14.576 33.812 21.866 70.038 21.866 108.68C785.658 711.244 664.168 832 513.518 832S243.806 708.83 243.806 559.094c0-72.452 29.158-140.076 80.184-190.792C166.052 295.85 64 138.868 64-35.018 64-51.924 76.15-64 93.158-64c17.008 0 29.158 12.076 29.158 28.982 0 161.81 102.052 306.716 252.702 362.262 85.046-50.714 194.386-48.3 277.002 0C678.744 317.584 705.474 305.51 727.342 291.018zM513.518 348.98c-116.632 0-211.396 94.19-211.396 210.114S396.886 769.206 513.518 769.206c116.632 0 211.394-94.188 211.394-210.112 0-28.98-4.858-57.962-17.008-84.528-9.718-24.152-26.728-45.886-46.168-65.208C622.862 370.718 569.402 348.98 513.518 348.98zM929 125l-96 0 0 96c0 17.674-14.326 32-32 32s-32-14.326-32-32l0-96-96 0c-17.674 0-32-14.326-32-32s14.326-32 32-32l96 0 0-96c0-17.674 14.326-32 32-32s32 14.326 32 32l0 96 96 0c17.674 0 32 14.326 32 32S946.674 125 929 125z"  horiz-adv-x="1024" />

    
    <glyph glyph-name="luxiangxian" unicode="&#59183;" d="M960 448l-192-128c0 38.4-17.6 73.6-44.8 96 65.6 38.4 108.8 110.4 108.8 192 0 123.2-100.8 224-224 224-123.2 0-224-100.8-224-224 0-62.4 25.6-120 67.2-160l-116.8 0c30.4 33.6 49.6 78.4 49.6 128 0 105.6-86.4 192-192 192S0 681.6 0 576c0-57.6 25.6-108.8 67.2-144C27.2 409.6 0 368 0 320l0-256c0-70.4 57.6-128 128-128l512 0c70.4 0 128 57.6 128 128l0 32 192-160c35.2 0 64 28.8 64 64L1024 384C1024 419.2 995.2 448 960 448zM64 576c0 70.4 57.6 128 128 128 70.4 0 128-57.6 128-128 0-70.4-57.6-128-128-128C121.6 448 64 505.6 64 576zM704 64c0-35.2-28.8-64-64-64L128 0c-35.2 0-64 28.8-64 64L64 320c0 35.2 28.8 64 64 64l512 0c35.2 0 64-28.8 64-64L704 64zM608 448c-88 0-160 72-160 160 0 88 72 160 160 160 88 0 160-72 160-160C768 520 696 448 608 448zM960 0 768 160c0 22.4 0 76.8 0 96l192 128C960 339.2 960 25.6 960 0z"  horiz-adv-x="1024" />

    
    <glyph glyph-name="hanji" unicode="&#59085;" d="M355.537412 777.331841c-46.886353-38.058369-65.036145-81.149832-78.481246-147.364582-8.700272-1.334293-15.314571-3.842326-19.857492-7.544777C194.831116 500.470285 166.259972 376.92107 171.492542 251.788219c2.543306-10.074703 8.326865-18.014781 15.919077-23.719279 26.159199-400.758636 828.169077-149.299733 616.900735 165.092314 0.748031 2.759809 1.479034 5.612059 2.219767 8.430251 4.196273-0.177581 7.739386-0.367326 9.386271-0.678701 14.921702-2.840086 30.956329 14.680873 35.797247 39.139669 4.849432 24.464878-3.329043 46.604169-18.250745 49.450337-1.221176 0.225018-3.635553 1.162793-6.504831 2.353562 2.823058 14.525185 5.514754 29.236466 8.010624 44.021941-38.733421 204.269688-383.423773 313.139246-441.353013 41.262132l-12.853974-2.720888-42.112333-161.303505 17.258236-30.110993-23.165858-110.759705c-7.952241-43.097545 0-90.973975 21.28909-106.355443 141.713602-46.329283 290.315172-20.021694 398.659283 102.685833 10.347157 11.71429 20.615254 32.009654 30.469805 57.974244 75.639943-219.871309-492.466047-382.141781-542.010039-105.757018 10.856791 3.831379 20.558087 10.944366 26.960748 21.531136l22.044419 118.725325c15.492152-0.513283 34.32551 1.288073 43.198499 11.83957 3.450674 40.932511 4.726584 116.292703 2.483707 233.211807l-12.069453 14.123802c23.197482 93.732568 43.704484 117.759574 129.62712 183.354006C470.029975 816.270819 355.537412 777.331841 355.537412 777.331841L355.537412 777.331841zM806.90188 448.58611c3.537032 19.030401 15.222131 32.665246 26.110547 30.45156 10.884766-2.214902 16.842257-19.44273 13.311307-38.479212-3.529734-19.035266-15.223347-32.674977-26.10933-30.455209C809.335718 412.316935 803.364848 429.545979 806.90188 448.58611L806.90188 448.58611 806.90188 448.58611zM364.669475 440.500075l29.960171 108.346544c1.531335 5.531782 6.699441 9.26464 12.434347 8.982456l185.637021-9.21842c7.660326-0.380705 13.093587-7.608025 11.334801-15.066443l-27.502006-116.639352c-1.40119-5.962356-6.985274-9.976182-13.08264-9.400867l-188.091537 17.510012C367.752823 425.720681 362.63337 433.134096 364.669475 440.500075L364.669475 440.500075 364.669475 440.500075zM598.732699 356.937082l-225.438364 25.319944c-1.41457 0.160553-2.649125 1.030215-3.282823 2.306126l-8.999484 18.092625c-1.471736 2.949554 0.89034 6.363739 4.179244 6.032902l212.051646-21.505593c0.941425-0.094872 1.829332-0.5145 2.508033-1.170091l22.381337-21.911841C604.978456 361.304855 602.696656 356.488263 598.732699 356.937082L598.732699 356.937082 598.732699 356.937082zM661.763147 516.261649l-26.447465-147.064153c-0.609372-3.392291-4.756992-4.743613-7.245564-2.352345l-33.475309 32.052225c-1.110492 1.061839-1.571474 2.630881-1.218744 4.118429l32.21886 135.525012c1.134818 4.756992 6.936621 6.585107 10.589203 3.324178l24.203371-21.612629C661.505289 519.252558 662.02587 517.739467 661.763147 516.261649L661.763147 516.261649 661.763147 516.261649zM773.23561 482.693901c-4.617116-6.565646-8.412006-14.577486-10.776515-23.583052-3.110107-11.887007-3.213493-23.417634-0.875744-32.913373-11.062348 22.658656-4.479673 59.72938 21.72088 70.212764C779.303786 492.091119 776.044072 487.478868 773.23561 482.693901L773.23561 482.693901 773.23561 482.693901zM287.976206 401.417572c-0.201908-1.262531-1.115357-2.29153-2.34748-2.647909l-26.672482-7.757631c-2.51898-0.735868-4.853081 1.616477-4.100184 4.129376l48.657302 162.810514c0.643428 2.161385 3.209845 3.060238 5.065935 1.77703l8.643105-5.952626c0.868446-0.592343 1.398758-1.565392 1.432814-2.617501l2.346264-68.509929c0.063248-1.851225-1.455924-3.358234-3.312015-3.398373-6.130207-0.149606-11.353046-0.856283-15.655138-2.128544-1.212662-0.362461-2.056782-1.425516-2.265987-2.679533L287.976206 401.417572 287.976206 401.417572 287.976206 401.417572zM290.66182 363.612196c23.815368 4.095319 34.827847 10.294856 33.03987 18.56577C333.218107 373.050769 322.205628 366.856098 290.66182 363.612196L290.66182 363.612196 290.66182 363.612196zM330.020425 383.755522c-7.712628 10.45176-18.927014 15.37417-33.649242 14.77088l0.057167 8.163879C316.006091 407.147613 327.209531 399.498234 330.020425 383.755522L330.020425 383.755522 330.020425 383.755522zM330.020425 383.755522"  horiz-adv-x="1024" />

    
    <glyph glyph-name="wancheng" unicode="&#59185;" d="M828.424624 67.33862C787.278329 26.242509 739.381636-6.014742 686.063621-28.538997 630.898903-51.843738 572.259587-63.659696 511.778571-63.659696 451.297555-63.659696 392.659489-51.842487 337.493521-28.538997 284.175504-6.014742 236.28006 26.242509 195.132515 67.33862 153.98747 108.434739 121.689585 156.27302 99.139079 209.52477 75.805883 264.623462 63.974244 323.192516 63.974244 383.598526 63.974244 444.004536 75.805883 502.572341 99.139079 557.672282 121.689585 610.924028 153.98747 658.762312 195.132515 699.858428 236.28006 740.954546 284.175504 773.211794 337.493521 795.736048 392.658239 819.040789 451.297555 830.85675 511.778571 830.85675 572.258336 830.85675 630.898903 819.040789 686.063621 795.736048 739.380385 773.211794 787.277078 740.954546 828.42338 699.858428 869.569675 658.762312 901.866306 610.924028 924.418063 557.672282 947.751263 502.572341 959.581645 444.005785 959.581645 383.598526 959.581645 323.191267 947.750012 264.623462 924.418063 209.52477 901.867557 156.27302 869.569675 108.434739 828.424624 67.33862M511.778571 894.751853C229.129565 894.751853-0.000125 665.901589-0.000125 383.598526-0.000125 101.294212 229.129565-127.554801 511.778571-127.554801 794.426324-127.554801 1023.556016 101.294212 1023.556016 383.598526 1023.556016 665.901589 794.425073 894.751853 511.778571 894.751853M753.615111 577.221932 434.585975 258.576859 272.32386 420.642341C259.680774 433.270009 239.180769 433.270009 226.533931 420.642341 213.892095 408.008429 213.892095 387.532175 226.533931 374.903259L411.689135 189.9776 411.690386 189.973854C413.668368 188.00078 415.835147 186.334907 418.131958 184.974986 430.54874 177.653386 446.81271 179.314264 457.477814 189.973854L457.489066 189.981346 799.408794 531.484098C812.050629 544.114264 812.050629 564.58802 799.411295 577.219434 786.764456 589.852098 766.265702 589.852098 753.615111 577.221932"  horiz-adv-x="1024" />

    
    <glyph glyph-name="xiazai" unicode="&#58901;" d="M700.052972 439.683616l-138.154667 0.089672 0.676881 400.060023L480.227073 839.59322 479.746893 439.533198l-134.684927 0 176.621198-309.950915L700.052972 439.683616M927.084475 239.255864l0-161.612655c0-45.323571-41.647006-87.864407-85.888723-87.864407L199.800045-10.221198c-44.240271 0-84.440949 42.540836-84.440949 87.864407l0 161.612655L35.664994 239.255864l0-181.890169C40.978802-33.988701 130.892655-89.465492 184.824768-89.420655l670.796655 0c64.72461-1.939525 154.425853 59.770938 154.425853 127.98409l0 200.692429L927.084475 239.255864z"  horiz-adv-x="1046" />

    
    <glyph glyph-name="tingzhi" unicode="&#58904;" d="M512 844.487789c-254.320243 0-460.487789-206.167546-460.487789-460.487789s206.167546-460.487789 460.487789-460.487789 460.487789 206.167546 460.487789 460.487789S766.320243 844.487789 512 844.487789zM512-12.022569c-218.717374 0-396.022569 177.305195-396.022569 396.022569S293.282626 780.022569 512 780.022569 908.022569 602.717374 908.022569 384 730.717374-12.022569 512-12.022569zM634.796744 289.85583c0-15.824407-12.828167-28.652574-28.652574-28.652574l-188.288341 0c-15.824407 0-28.652574 12.828167-28.652574 28.652574l0 188.288341c0 15.824407 12.828167 28.652574 28.652574 28.652574l188.288341 0c15.824407 0 28.652574-12.828167 28.652574-28.652574L634.796744 289.85583z"  horiz-adv-x="1024" />

    
    <glyph glyph-name="renzheng" unicode="&#59016;" d="M797.3 492c9.1 16.5 3.1 37.3-13.4 46.4-16.3 9-37.3 3.1-46.3-13.4L546.3 178 397.8 552c-3.2 8.1-8.7 14.3-14.9 19.6-9.4 10.9-22.8 18.2-38.3 18.2h-74.9c-28.3 0-51.2-22.9-51.2-51.2 0-28.3 22.9-51.2 51.2-51.2h43.5l161.9-407.8c8-20.1 27.2-32.3 47.6-32.3 3.2 0 6.5 1.2 9.7 1.8 0.2 0 0.3-0.1 0.5-0.1 0.9 0 1.7 0.6 2.6 0.7 2 0.5 4.1 0.4 6.1 1.2 0.5 0.2 0.8 0.6 1.3 0.8 5.7 1.8 10.5 4.9 14.6 9.5 0.8 0.7 1.5 1.5 2.2 2.2 0.9 1.2 2.4 1.8 3.2 3.2l4 7.2c1.1 2 2.5 3.9 3.3 6L797.3 492zM512-128C229.7-128 0 101.7 0 384S229.7 896 512 896s512-229.7 512-512-229.7-512-512-512z m0 955.7c-244.7 0-443.7-199-443.7-443.7s199-443.7 443.7-443.7 443.7 199 443.7 443.7S756.7 827.7 512 827.7z"  horiz-adv-x="1024" />

    
    <glyph glyph-name="tixing" unicode="&#58881;" d="M843.402 254.476h-13.257v212.653c0 166.49-128.578 303.425-291.634 316.953v54.218c0 14.642-11.869 26.511-26.511 26.511s-26.511-11.869-26.511-26.511v-54.218c-163.056-13.529-291.634-150.463-291.634-316.953v-212.653h-13.257c-65.785 0-119.306-53.521-119.306-119.306v-66.281h285.006c0-91.514 74.188-165.7 165.7-165.7s165.7 74.188 165.7 165.7h285.006v66.281c0 65.785-53.521 119.306-119.306 119.306zM512-43.787c-62.132 0-112.677 50.546-112.677 112.677h225.353c0-62.132-50.546-112.677-112.677-112.677zM909.682 121.914h-795.364v13.257c0 36.607 29.674 66.281 66.281 66.281h66.281v265.678c0 146.419 118.701 265.121 265.121 265.121s265.121-118.701 265.121-265.121v-265.678h66.281c36.607 0 66.281-29.674 66.281-66.281v-13.257z"  horiz-adv-x="1024" />

    
    <glyph glyph-name="daoru" unicode="&#58932;" d="M542.208 384.512c-17.92 0-32.256 14.336-32.256 31.744v192c0 17.92 14.336 31.744 32.256 31.744s31.744-14.336 31.744-31.744V416.768c0-17.92-14.336-32.256-31.744-32.256zM765.952 416.768c0-17.92-14.336-32.256-31.744-32.256h-192c-17.92 0-31.744 14.336-31.744 31.744 0 17.92 14.336 31.744 31.744 31.744h192c17.408 0.512 31.744-13.824 31.744-31.232zM881.152 756.224c12.288-12.288 12.288-32.768 0-45.056L564.736 394.24c-12.288-12.288-32.768-12.288-45.056 0-12.288 12.288-12.288 32.768 0 45.056l316.928 316.928c11.776 12.288 32.256 12.288 44.544 0zM826.88 397.312v-271.872c0-35.328-28.672-64-64-64H250.88c-35.328 0-64 28.672-64 64v512c0 35.328 28.672 64 64 64h274.432c17.408 0 31.744 14.336 31.744 31.744 0 17.408-14.336 31.744-31.744 31.744H250.88c-70.656 0-128-57.344-128-128v-512c0-70.656 57.344-128 128-128h512c70.656 0 128 57.344 128 128V397.312c0 17.408-14.336 31.744-31.744 31.744-17.92 0.512-32.256-13.824-32.256-31.744z"  horiz-adv-x="1024" />

    
    <glyph glyph-name="ccgl-baobiao-5" unicode="&#58905;" d="M512 833.257c-248.118 0-449.257-201.139-449.257-449.257s201.139-449.257 449.257-449.257 449.257 201.139 449.257 449.257-201.139 449.257-449.257 449.257zM489.582 787.674v-351.868l-257.918 239.494c35.881 34.564 77.217 61.878 122.983 81.234 42.966 18.173 88.26 28.611 134.936 31.14zM107.713 384c0 54.598 10.683 107.54 31.752 157.353 15.523 36.702 36.167 70.553 61.559 101.031l276.982-257.196-295.123-236.099c-17.248 24.103-31.774 50.028-43.418 77.559-21.068 49.814-31.751 102.755-31.751 157.353zM797.874 98.126c-37.145-37.143-80.384-66.3-128.521-86.661-49.814-21.069-102.755-31.752-157.353-31.752s-107.54 10.683-157.353 31.752c-48.137 20.361-91.377 49.517-128.521 86.661-5.183 5.183-10.205 10.49-15.076 15.908l323.501 258.801v414.833c46.627-2.542 91.876-12.977 134.8-31.132 48.137-20.361 91.378-49.517 128.521-86.661 37.143-37.145 66.3-80.384 86.661-128.521 21.069-49.814 31.752-102.755 31.752-157.353s-10.683-107.54-31.752-157.353c-20.361-48.137-49.517-91.377-86.661-128.521z"  horiz-adv-x="1024" />

    
    <glyph glyph-name="jibenxinxi" unicode="&#59003;" d="M302.592 474.112h421.376c16.384 0 30.208 13.824 30.208 30.72s-13.312 30.72-30.208 30.72H302.592c-16.384 0-30.208-13.824-30.208-30.72 0.512-16.896 13.824-30.72 30.208-30.72z m120.32 213.504h180.736c49.664 0 90.112 40.96 90.112 91.648 0 50.688-40.448 91.648-90.112 91.648H422.912C373.248 870.4 332.8 829.44 332.8 778.752c0-50.176 40.448-91.136 90.112-91.136z m0 121.856h180.736c16.384 0 30.208-13.824 30.208-30.72s-13.312-30.72-30.208-30.72H422.912c-16.384 0-30.208 13.824-30.208 30.72 0.512 16.896 13.824 30.72 30.208 30.72z m331.264-487.936c0 16.896-13.312 30.208-30.208 30.208H302.592c-16.384 0-30.208-13.824-30.208-30.208 0-16.896 13.312-30.72 30.208-30.72h421.376c16.384 0.512 30.208 14.336 30.208 30.72z m90.112 487.936h-90.112v-60.928h90.112c16.384 0 30.208-13.824 30.208-30.72v-731.648c0-16.896-13.312-30.72-30.208-30.72H182.272c-16.384 0-30.208 13.824-30.208 30.72V717.824c0 16.896 13.312 30.72 30.208 30.72h90.112V809.472H182.272c-49.664 0-90.112-40.96-90.112-91.648v-731.648c0-50.688 40.448-91.648 90.112-91.648h662.016c49.664 0 90.112 40.96 90.112 91.648V717.824c0 50.688-40.448 91.648-90.112 91.648z m-541.696-640c-16.384 0-30.208-13.824-30.208-30.72s13.312-30.72 30.208-30.72h240.64c16.384 0 30.208 13.824 30.208 30.72s-13.312 30.72-30.208 30.72h-240.64z"  horiz-adv-x="1024" />

    
    <glyph glyph-name="set" unicode="&#58958;" d="M950.901 476.551c-5.238 29.296-22.144 48.225-43.067 48.225-0.267 0-0.538-0.005-0.686-0.009h-3.853c-60.509 0-109.738 52.093-109.738 116.128 0 20.782 9.472 44.078 9.555 44.278 10.844 25.834 2.501 57.508-19.385 73.668l-1.327 0.984-111.212 65.38-1.405 0.652c-7.244 3.333-15.172 5.023-23.565 5.023-17.202 0-34.122-7.307-45.25-19.531-12.197-13.327-54.301-51.358-86.652-51.358-32.645 0-74.997 38.78-87.248 52.351-11.186 12.475-28.241 19.925-45.615 19.925-8.23 0-16.014-1.634-23.135-4.844l-1.446-0.652-115.135-66.929-1.36-0.997c-21.958-16.144-30.348-47.792-19.515-73.61 0.096-0.229 9.582-23.402 9.582-44.338 0-64.033-49.229-116.128-109.738-116.128h-3.79a29.796 29.796 0 0 1-0.789 0.009c-20.9 0-37.791-18.93-43.029-48.229-0.383-2.152-9.362-53.086-9.362-92.926 0-39.837 8.979-90.772 9.362-92.926 5.242-29.297 22.142-48.227 43.06-48.227 0.264 0 0.538 0.007 0.697 0.013h3.851c60.509 0 109.738-52.095 109.738-116.128 0-20.806-9.47-44.076-9.553-44.28-10.837-25.809-2.519-57.484 19.358-73.688l1.298-0.957 109.092-64.557 1.387-0.648c7.242-3.366 15.147-5.072 23.498-5.072 17.444 0 34.485 7.627 45.584 20.396 15.494 17.816 57.53 54.61 88.579 54.61 33.615 0 76.727-41.247 89.167-55.679 11.121-12.989 28.279-20.746 45.9-20.748h0.005c8.19 0 15.954 1.647 23.081 4.9l1.417 0.65 113.082 66.137 1.338 0.991c21.922 16.162 30.285 47.81 19.477 73.567-0.096 0.235-9.595 23.716-9.595 44.378 0 64.028 49.229 116.124 109.738 116.124l3.736 0.004c0.249-0.007 0.498-0.009 0.746-0.009 20.961 0.002 37.885 18.93 43.116 48.209 0.092 0.516 9.371 52.107 9.371 92.941-0.001 40.023-8.982 90.782-9.365 92.927z m-60.978-167.952c-89.709-7.275-159.363-86.462-159.363-182.252 0-27.539 8.537-54.162 12.737-65.593l-99.116-57.968c-4.276 4.808-18.704 20.459-38.676 36.157-33.678 26.463-65.92 39.885-95.821 39.885-29.617 0-61.612-13.17-95.099-39.136-19.681-15.272-34.207-30.769-38.493-35.5l-95.429 56.473c4.205 11.429 12.773 38.107 12.773 65.687 0 95.786-69.654 174.972-159.361 182.254-2.19 13.508-7.343 48.133-7.343 75.017 0 26.844 5.151 61.5 7.34 75.017 89.709 7.28 159.363 86.468 159.363 182.256 0 27.508-8.524 54.115-12.72 65.546l101.548 59.021h0.007c3.66-3.958 18.305-19.336 38.526-34.584 33.039-24.924 64.503-37.558 93.515-37.558 28.727 0 59.94 12.39 92.771 36.832 20.093 14.956 34.669 30.036 38.32 33.927l0.022 0.007 97.89-57.555c-4.202-11.431-12.758-38.089-12.758-65.638 0-95.788 69.651-174.974 159.363-182.254 2.19-13.538 7.343-48.254 7.343-75.017 0.002-26.871-5.149-61.508-7.339-75.024z m-379.866 243.66c-87.548 0-158.776-75.374-158.776-168.019 0-92.65 71.227-168.024 158.776-168.024 87.553 0 158.782 75.374 158.782 168.024 0 92.645-71.232 168.019-158.782 168.019z m0-269.381c-52.81 0-95.774 45.472-95.774 101.362 0 55.883 42.964 101.349 95.774 101.349 52.815 0 95.781-45.465 95.781-101.349 0-55.89-42.967-101.362-95.781-101.362z"  horiz-adv-x="1024" />

    
    <glyph glyph-name="xuanzhong-copy" unicode="&#58937;" d="M510.471658 875.15342c-275.016738 0-497.961488-222.94475-497.961487-497.961487 0-275.015349 222.94475-497.960098 497.961487-497.960098s497.961488 222.94475 497.961488 497.960098c0 275.016738-222.94475 497.961488-497.961488 497.961487z m320.1181-372.190087l-384.141719-384.14033c-17.713479-17.713479-46.31014-17.713479-64.02362 0l-192.07086 192.06947c-17.713479 17.64123-17.713479 46.31014 0 64.02362 17.64262 17.64123 46.31014 17.64123 64.02362 0l160.05905-160.05766 352.129909 352.12852c17.713479 17.71209 46.31014 17.71209 64.02362 0 17.64262-17.713479 17.64262-46.382389 0-64.02362zM830.589758 502.963333l-384.141719-384.14033c-17.713479-17.713479-46.31014-17.713479-64.02362 0l-192.07086 192.06947c-17.713479 17.64123-17.713479 46.31014 0 64.02362 17.64262 17.64123 46.31014 17.64123 64.02362 0l160.05905-160.05766 352.129909 352.12852c17.713479 17.71209 46.31014 17.71209 64.02362 0 17.64262-17.713479 17.64262-46.382389 0-64.02362"  horiz-adv-x="1024" />

    
    <glyph glyph-name="rili" unicode="&#58900;" d="M937.371489 798.8463h-138.2821v64.769133a32.384567 32.384567 0 0 1-64.769133 0v-64.769133h-191.068944v64.769133a32.384567 32.384567 0 0 1-64.769133 0v-64.769133H287.73708v64.769133a32.384567 32.384567 0 0 1-64.769133 0v-64.769133H85.333538A85.17141 85.17141 0 0 1 0.162128 713.674889v-756.503479a85.17141 85.17141 0 0 1 85.17141-85.17141h852.037951a85.17141 85.17141 0 0 1 85.171411 85.17141V713.351044a85.17141 85.17141 0 0 1-85.171411 85.17141z m21.373814-841.998735a21.373814 21.373814 0 0 0-21.373814-21.373814H85.333538a21.373814 21.373814 0 0 0-21.373814 21.373814V713.351044a21.373814 21.373814 0 0 0 21.373814 21.373814h138.605946v-64.769134a32.384567 32.384567 0 1 1 64.769133 0v64.769134h191.716636v-64.769134a32.384567 32.384567 0 1 1 64.769133 0v64.769134h191.716635v-64.769134a32.384567 32.384567 0 1 1 64.769133 0v64.769134h138.605946a21.373814 21.373814 0 0 0 21.373814-21.373814zM223.939484 415.089184h127.919039v97.1537H223.939484z m0-159.655914h127.919039v97.1537H223.939484z m0-159.655914h127.919039v97.1537H223.939484z m223.777356 0h127.919039v97.1537h-128.242885z m0 159.655914h127.919039v97.1537h-128.242885z m0 159.655914h127.919039v97.1537h-128.242885z m223.777356-319.635674h127.595193v97.153701h-127.919038z m0 159.655914h127.595193v97.153701h-127.919038z m0 159.655914h127.595193v97.153701h-127.919038z m0 0"  horiz-adv-x="1024" />

    
    <glyph glyph-name="gongneng" unicode="&#58882;" d="M423.4309419614815 768.3719993268148v-295.23019427081476h-295.23019427081476v295.23019427081476h295.23019427081476m0 59.04603788325926h-295.23019427081476c-32.60965167407407 0-59.04603909688888-26.43638742281481-59.04603909688888-59.04603788325926v-295.23019427081476c0-32.60965167407407 26.43638742281481-59.04603909688888 59.04603909688888-59.04603909688888h295.23019427081476c32.60965167407407 0 59.04603909688888 26.43638742281481 59.04603909688888 59.04603909688888v295.23019427081476c0 32.6111274477037-26.43491164918518 59.04603909688888-59.04603909688888 59.04603788325926zM423.4309419614815 296.0036877653333v-295.23019305718515h-295.23019427081476v295.23019305718515h295.23019427081476m0 59.04603909688888h-295.23019427081476c-32.60965167407407 0-59.04603909688888-26.43638742281481-59.04603909688888-59.04603909688888v-295.23019305718515c0-32.60965167407407 26.43638742281481-59.04603909688888 59.04603909688888-59.04603909688888h295.23019427081476c32.60965167407407 0 59.04603909688888 26.43638742281481 59.04603909688888 59.04603909688888v295.23019305718515c0 32.6111274477037-26.43491164918518 59.04603909688888-59.04603909688888 59.04603909688888zM748.1841551739259 768.3719993268148c81.39496440414814 0 147.61509713540738-66.22013273125926 147.61509713540738-147.61509713540738s-66.22013273125926-147.61509713540738-147.61509713540738-147.61509713540738-147.61509713540738 66.22013273125926-147.61509713540738 147.61509713540738 66.22013273125926 147.61509713540738 147.61509713540738 147.61509713540738m0 59.04603788325926c-114.13599269925926 0-206.66113623229626-92.5251423194074-206.66113623229626-206.66113501866664s92.5251423194074-206.66113623229626 206.66113623229626-206.66113623229626 206.66113623229626 92.5251423194074 206.66113623229626 206.66113623229626-92.5251423194074 206.66113623229626-206.66113623229626 206.66113501866664zM895.7992523093335 296.0036877653333v-295.23019305718515h-295.23019427081476v295.23019305718515h295.23019427081476m0 59.04603909688888h-295.23019427081476c-32.60965167407407 0-59.04603909688888-26.43638742281481-59.04603909688888-59.04603909688888v-295.23019305718515c0-32.60965167407407 26.43638742281481-59.04603909688888 59.04603909688888-59.04603909688888h295.23019427081476c32.60965167407407 0 59.04603909688888 26.43638742281481 59.04603909688888 59.04603909688888v295.23019305718515c0 32.6111274477037-26.43491164918518 59.04603909688888-59.04603909688888 59.04603909688888z"  horiz-adv-x="1024" />

    
    <glyph glyph-name="beifen" unicode="&#58889;" d="M576.1 854.76c-12.14 7.861-27.48 10.442-49.617 10.442-18.282 0-35.338-4.548-50.743-12.87L79.997 661.465c-29.308-16.715-46.922-44.24-46.922-75.23 0-30.593 16.94-56.693 44.036-73.64L476.917 318.61c12.07-7.827 30.348-12.268 49.566-12.268 18.28 0 35.336 4.549 50.743 12.872L973.07 511.98c29.205 16.666 46.82 44.191 46.82 75.18-1.469 31.284-18.479 58.087-45.028 73.308l-29.96-52.256c9.03-5.177 14.358-13.572 14.787-22.496-0.035-6.871-5.293-15.088-14.787-20.532L549.723 372.79c-7.963-4.272-15.237-6.212-23.24-6.212-8.59 0-15.849 1.764-20.37 4.614l-399.895 194.04c-7.81 5.09-12.908 12.944-12.908 21.003 0 8.317 5.258 16.534 14.752 21.977L503.14 798.707c8.064 4.32 15.338 6.26 23.343 6.26 11.591 0 17.586-1.009 20.371-2.764l399.842-194.94 26.375 54.154L576.1 854.76zM501.704 174.135l13.02-6.261 13.031 6.235L990.58 395.555c15.004 7.179 21.348 25.162 14.169 40.167-7.18 15.004-25.163 21.348-40.167 14.169L501.757 228.445l26.052-0.025L73.288 446.997c-14.99 7.208-32.986 0.9-40.195-14.09-7.209-14.99-0.9-32.986 14.09-40.195l454.52-218.577zM501.704 36.454l13.02-6.26 13.031 6.235L990.58 257.874c15.004 7.18 21.348 25.163 14.169 40.167-7.18 15.004-25.163 21.348-40.167 14.169L501.757 90.765l26.052-0.026L73.288 309.316c-14.99 7.209-32.986 0.9-40.195-14.09-7.209-14.99-0.9-32.986 14.09-40.195l454.52-218.577zM501.704-101.226l13.02-6.261 13.031 6.235L990.58 120.193c15.004 7.18 21.348 25.163 14.169 40.167-7.18 15.005-25.163 21.348-40.167 14.17L501.757-46.917l26.052-0.026L73.288 171.635c-14.99 7.209-32.986 0.9-40.195-14.09-7.209-14.99-0.9-32.986 14.09-40.194l454.52-218.577z"  horiz-adv-x="1024" />

    
    <glyph glyph-name="yanshi_topbaricon" unicode="&#58961;" d="M443.8016 344.6784l156.8768 90.5216c13.7216 7.7824 13.7216 27.648 0 35.4304l-156.8768 90.5216c-13.7216 7.7824-30.72-2.048-30.72-17.408v-181.248c0-15.7696 16.9984-25.6 30.72-17.8176zM966.656 801.792H542.72V844.8c0 16.9984-13.7216 30.72-30.72 30.72s-30.72-13.7216-30.72-30.72v-43.008H57.344c-20.2752 0-36.864-16.5888-36.864-36.864v-616.448c0-20.2752 16.5888-36.864 36.864-36.864h175.5136l-167.5264-166.7072c-11.8784-11.8784-12.0832-31.5392-0.2048-43.4176 11.8784-11.8784 31.5392-12.0832 43.4176-0.2048L319.8976 111.616h384.2048L915.456-98.7136c11.8784-11.8784 31.5392-11.8784 43.4176 0.2048 11.8784 11.8784 11.8784 31.5392-0.2048 43.4176L791.1424 111.616H966.656c20.2752 0 36.864 16.5888 36.864 36.864V764.928c0 20.2752-16.5888 36.864-36.864 36.864z m-24.576-628.736H81.92V740.352h860.16v-567.296z"  horiz-adv-x="1024" />

    
    <glyph glyph-name="tuichuzhanghao" unicode="&#58976;" d="M511.64-48c-58.32 0-115.02 10.98-168.3 32.76-51.48 20.88-97.74 50.94-137.34 89.1s-70.92 82.62-92.7 132.3C90.8 257.46000000000004 79.28 312 79.28 368.15999999999997c0 67.32 17.1 133.92 49.5 193.14 31.14 57.06 76.68 107.28 131.4 145.08 15.3 10.44 36.36 7.2 47.16-7.56 10.98-14.58 7.38-34.92-7.92-45.36-46.26-32.04-84.6-74.16-111.06-122.58-27.54-50.4-41.76-105.12-41.76-162.54 0-93.78 37.98-181.98 106.74-248.22s160.56-102.78 257.94-102.78 188.82 36.54 257.94 102.78c68.94 66.42 106.74 154.44 106.74 248.22 0 57.6-13.86 112.14-41.76 162.72-26.28 48.06-64.8 90.54-111.06 122.58-15.3 10.26-18.72 30.78-7.92 45.36 10.98 14.58 32.04 18 47.16 7.56 54.72-37.8 100.44-88.02 131.58-145.08 32.4-59.22 49.5-126 49.5-193.14 0-56.16-11.52-110.7-34.02-162-21.78-49.68-52.92-94.14-92.7-132.3-39.6-38.16-85.86-68.22-137.34-89.28-52.92-21.78-109.44-32.76-167.76-32.76zM512 384.54c-18.72 0-34.2 13.86-34.2 31.14V784.86c0 17.1 15.48 31.14 34.2 31.14s34.2-14.04 34.2-31.14v-369.18c0-17.28-15.48-31.14-34.2-31.14z"  horiz-adv-x="1024" />

    
    <glyph glyph-name="chahao" unicode="&#58899;" d="M960-121.6c-12.8 0-32 6.4-38.4 19.2L512 300.8l-409.6-409.6c-12.8-12.8-25.6-19.2-38.4-19.2-12.8 0-32 6.4-38.4 19.2-12.8 12.8-19.2 25.6-19.2 38.4 0 12.8 6.4 32 19.2 38.4L428.8 384 19.2 793.6C12.8 806.4 6.4 819.2 6.4 832 6.4 844.8 12.8 864 25.6 870.4 32 883.2 44.8 889.6 64 889.6c12.8 0 32-6.4 38.4-19.2L512 467.2 921.6 876.8c12.8 12.8 25.6 19.2 38.4 19.2 12.8 0 32-6.4 38.4-19.2 12.8-12.8 19.2-25.6 19.2-38.4s-6.4-32-19.2-38.4L595.2 384l409.6-409.6c12.8-12.8 19.2-25.6 19.2-38.4 0-12.8-6.4-32-19.2-38.4-12.8-12.8-25.6-19.2-44.8-19.2z"  horiz-adv-x="1024" />

    
    <glyph glyph-name="timu" unicode="&#58973;" d="M860.8 876.8H179.2C124.8 876.8 80 832 80 777.6v-774.4c0-54.4 44.8-99.2 99.2-99.2h563.2l214.4 236.8V777.6C960 832 915.2 876.8 860.8 876.8zM179.2-32c-19.2 0-32 16-32 32V777.6c0 19.2 16 32 32 32h681.6c19.2 0 32-16 32-32v-611.2l-3.2-3.2h-160v-176l-16-19.2H179.2zM243.2 614.4h486.4c19.2 0 32 16 32 32 0 19.2-16 32-32 32H243.2c-19.2 0-32-16-32-32 0-19.2 16-32 32-32zM243.2 419.2h486.4c19.2 0 32 16 32 32 0 19.2-16 32-32 32H243.2c-19.2 0-32-16-32-32 0-19.2 16-32 32-32zM531.2 288h-288c-19.2 0-32-16-32-32 0-19.2 16-32 32-32h288c19.2 0 32 16 32 32 3.2 19.2-12.8 32-32 32z"  horiz-adv-x="1024" />

    
    <glyph glyph-name="xiugaimima" unicode="&#58986;" d="M937.58545437 553.17818156a27.84 27.84 0 0 1-20.46545437 8.29090969 28.75636406 28.75636406 0 0 1-20.72727281-8.29090969l-404.59636313-404.59636312a28.40727281 28.40727281 0 0 1-8.33454562-20.50909125c0-8.02909125 2.74909125-14.83636406 8.33454562-20.42181844a27.92727281 27.92727281 0 0 1 20.50909032-8.64 27.40363594 27.40363594 0 0 1 20.42181843 8.64l404.59636313 404.55272719a27.40363594 27.40363594 0 0 1 8.59636406 20.50909125 26.53090875 26.53090875 0 0 1-8.29090875 20.46545437z m-77.58545437-282.32727281a27.92727281 27.92727281 0 0 1-20.46545438-8.59636312 28.40727281 28.40727281 0 0 1-8.33454562-20.50909125v-266.92363594H135.41818156V389.67272719h432.87272719a28.40727281 28.40727281 0 0 1 20.50909125 8.33454562 28.27636406 28.27636406 0 0 1 8.59636406 20.72727281 27.92727281 27.92727281 0 0 1-8.64 20.50909032 27.92727281 27.92727281 0 0 1-20.46545531 8.59636406H245.86181844V588.43636406c0 58.90909125 20.85818156 109.17818156 62.48727281 150.85090875 41.89090875 41.67272719 92.24727281 62.48727281 151.11272719 62.48727282h43.11272719c58.90909125 0 109.17818156-20.81454563 150.85090875-62.48727282 41.84727281-41.67272719 62.74909125-91.94181844 62.74909125-150.85090875v-22.60363687a27.97090875 27.97090875 0 0 1 8.90181843-19.41818157c5.54181844-5.23636406 12.21818156-7.81090875 19.9418175-7.81090968a28.75636406 28.75636406 0 0 1 20.72727282 8.3781825 28.75636406 28.75636406 0 0 1 8.33454562 20.72727281v20.72727281c0 74.70545438-26.57454562 138.63272719-79.72363594 191.7818175C641.20727281 833.36727281 577.28 859.94181844 502.57454563 859.94181844H459.2c-74.70545438 0-138.63272719-26.57454562-191.78181844-79.72363688-53.14909125-53.14909125-79.72363594-117.07636406-79.72363594-191.7818175v-140.59636406H106.61818156a27.40363594 27.40363594 0 0 1-20.50909031-8.64 27.40363594 27.40363594 0 0 1-8.59636406-20.46545438V-55.85454562999996a27.92727281 27.92727281 0 0 1 8.64-20.50909031 27.40363594 27.40363594 0 0 1 20.46545437-8.59636406 32.07272719 32.07272719 0 0 1 9.94909125 1.87636406h733.48363594a28.27636406 28.27636406 0 0 1 30.72 6.72 28.40727281 28.40727281 0 0 1 8.33454563 20.50909032v297.6a27.92727281 27.92727281 0 0 1-8.64 20.50909124 27.92727281 27.92727281 0 0 1-20.46545438 8.59636313z"  horiz-adv-x="1024" />

    
    <glyph glyph-name="gailan" unicode="&#58893;" d="M1015.185435 385.647434c6.333823-6.557746 9.276811-15.514667 8.253163-25.175346a40.050233 40.050233 0 0 0-11.004217-23.319984c-5.917966-6.077911-15.482678-9.692668-25.559214-9.692668-9.884602 0-18.809534 3.358845-24.599544 9.3088L544.147354 808.765987c-7.837306 7.997251-18.425666 12.411733-29.813751 12.411733s-22.008435-4.446472-29.87773-12.5077L56.666926 337.248071a33.236575 33.236575 0 0 0-47.375715-0.095967c-12.347755 12.699635-12.379744 35.859673-0.063978 48.591297l428.620662 473.117366C457.841022 882.82053 485.287587 896 515.101339 896a98.846022 98.846022 0 0 0 71.303489-30.549499l428.812596-479.803067z m-136.721002-71.591391c16.186436 0 31.47718-15.962513 31.47718-32.820718v-317.682796c0-23.44794-9.468745-46.799913-26.007061-64.041986S845.035924-127.648121 822.547654-127.648121h-130.483146c-22.48827 0-37.331167 9.884602-53.869483 27.158664s-26.00706 40.594046-26.00706 64.041986V106.511387c0 15.73859-9.372778 25.527225-24.471588 25.527225h-162.951985c-15.09881 0-24.471588-9.788635-24.471588-25.527225v-142.958858c0-23.44794-3.262878-46.799913-19.801193-64.041986S354.132672-127.648121 331.644402-127.648121H201.161256c-22.456281 0-44.848583 9.884602-61.386898 27.158664s-26.00706 40.594046-26.007061 64.041986v317.682796c0 16.890194 15.290744 32.820718 31.445191 32.820718s31.47718-15.962513 31.47718-32.820718v-317.682796c0-15.73859 9.372778-25.527225 24.471588-25.527225h124.277279c15.09881 0 24.471588 9.788635 24.471588 25.527225V106.511387c0 23.44794 9.468745 46.799913 26.00706 64.041985s38.898629 27.158664 61.386899 27.158664h142.926869c22.456281 0 44.848583-9.884602 61.386898-27.158664s26.00706-40.594046 26.00706-64.041985v-142.958858c0-15.73859 9.372778-25.527225 24.471588-25.527225h130.483146c15.09881 0 24.471588 9.788635 24.471588 25.527225v317.682796c0 16.890194 15.290744 32.820718 31.445191 32.820718z"  horiz-adv-x="1024" />

    
    <glyph glyph-name="tingzhiyanshi" unicode="&#59030;" d="M928 748.8v-652.8l44.8-44.8c12.8 12.8 19.2 25.6 19.2 44.8V748.8c0 32-25.6 57.6-57.6 57.6H217.6l57.6-57.6h652.8zM710.4-19.2H313.6c-19.2 0-32-12.8-32-32s12.8-32 32-32H704c19.2 0 32 12.8 32 32s-12.8 32-25.6 32zM985.6-38.4L83.2 864C70.4 876.8 51.2 876.8 38.4 864c-6.4-12.8-6.4-32 0-44.8l25.6-19.2c-12.8-12.8-25.6-32-25.6-51.2v-652.8c0-32 25.6-57.6 57.6-57.6h723.2l121.6-121.6c12.8-12.8 32-12.8 44.8 0 6.4 12.8 6.4 32 0 44.8zM96 102.4V748.8h12.8l281.6-281.6-166.4-166.4c-12.8-12.8-12.8-32 0-38.4 6.4-6.4 12.8-6.4 19.2-6.4 6.4 0 12.8 0 19.2 6.4l166.4 166.4L544 320l217.6-217.6H96zM780.8 396.8c19.2 0 32 12.8 32 32V601.6c0 19.2-12.8 32-32 32H601.6c-19.2 0-32-12.8-32-32 0-12.8 12.8-25.6 32-25.6h115.2l-128-128 38.4-38.4 121.6 121.6v-102.4c0-19.2 12.8-32 32-32z"  horiz-adv-x="1024" />

    
    <glyph glyph-name="jianpan" unicode="&#58967;" d="M334.933 537.6a42.667 42.667 0 1 1 85.334 0 42.667 42.667 0 1 1-85.334 0zM334.933 366.933a42.667 42.667 0 1 1 85.334 0 42.667 42.667 0 1 1-85.334 0zM484.267 366.933a42.667 42.667 0 1 1 85.333 0 42.667 42.667 0 1 1-85.333 0zM484.267 537.6a42.667 42.667 0 1 1 85.333 0 42.667 42.667 0 1 1-85.333 0zM633.6 366.933a42.667 42.667 0 1 1 85.333 0 42.667 42.667 0 1 1-85.333 0zM633.6 537.6a42.667 42.667 0 1 1 85.333 0 42.667 42.667 0 1 1-85.333 0zM782.933 537.6a42.667 42.667 0 1 1 85.334 0 42.667 42.667 0 1 1-85.334 0zM1024 682.667c0 36.266-27.733 64-64 64H64c-36.267 0-64-27.734-64-64v-597.334c0-36.266 27.733-64 64-64h896c36.267 0 64 27.734 64 64V682.667z m-42.667-597.334c0-12.8-8.533-21.333-21.333-21.333H64c-12.8 0-21.333 8.533-21.333 21.333V682.667C42.667 695.467 51.2 704 64 704h896c12.8 0 21.333-8.533 21.333-21.333v-597.334zM782.933 366.933a42.667 42.667 0 1 1 85.334 0 42.667 42.667 0 1 1-85.334 0zM846.933 234.667h-640c-12.8 0-21.333-8.534-21.333-21.334S194.133 192 206.933 192h640c12.8 0 21.334 8.533 21.334 21.333s-10.667 21.334-21.334 21.334zM185.6 537.6a42.667 42.667 0 1 1 85.333 0 42.667 42.667 0 1 1-85.333 0zM185.6 366.933a42.667 42.667 0 1 1 85.333 0 42.667 42.667 0 1 1-85.333 0z"  horiz-adv-x="1024" />

    
    <glyph glyph-name="jiankong" unicode="&#59034;" d="M271.059-128v60.235H752.94V-128H271.06zM933.647 896C983.462 896 1024 855.462 1024 805.647v-602.353c0-49.814-40.538-90.353-90.353-90.353H90.353C40.538 112.941 0 153.48 0 203.294V805.647C0 855.462 40.538 896 90.353 896h843.294z m0-722.824a30.118 30.118 0 0 1 30.118 30.118V414.118H632.47a30.118 30.118 0 0 0-26.926 16.625L512.422 616.99l-148.36-306.357a30.298 30.298 0 0 0-26.383-16.986h-0.723a30.178 30.178 0 0 0-26.443 15.661l-57.284 104.81H60.235v-210.824a30.118 30.118 0 0 1 30.118-30.118h843.294zM90.353 835.765a30.118 30.118 0 0 1-30.118-30.118v-331.294H271.06c11.023 0 21.142-6.024 26.383-15.661l37.888-69.21 149.564 308.826c5.06 10.42 14.758 19.456 27.106 16.986a30.118 30.118 0 0 0 26.925-16.625l112.158-224.316h312.682V805.647a30.118 30.118 0 0 1-30.118 30.118H90.353z"  horiz-adv-x="1024" />

    
    <glyph glyph-name="kaishi" unicode="&#59217;" d="M512.000341-128a510.224727 510.224727 0 0 0-362.017892 149.981767A510.224727 510.224727 0 0 0 0.000683 383.999659a510.224727 510.224727 0 0 0 149.981766 362.017892A510.224727 510.224727 0 0 0 512.000341 895.999317a510.224727 510.224727 0 0 0 362.017892-149.981766A510.224727 510.224727 0 0 0 1024 383.999659a510.224727 510.224727 0 0 0-149.981767-362.017892A510.224727 510.224727 0 0 0 512.000341-128z m0 951.295366c-117.350322 0-227.669182-45.738636-310.613126-128.682581A436.428509 436.428509 0 0 1 72.704634 383.999659c0-117.350322 45.738636-227.669182 128.682581-310.613127a436.428509 436.428509 0 0 1 310.613126-128.68258c117.350322 0 227.669182 45.738636 310.613127 128.68258a436.428509 436.428509 0 0 1 128.68258 310.613127c0 117.350322-45.738636 227.669182-128.68258 310.613126A436.428509 436.428509 0 0 1 512.000341 823.295366z m-68.266621-330.205647v-218.180121L618.29147 383.999659 443.73372 493.089719z m-68.266621-341.333106V616.242704L747.042318 383.999659 375.467099 151.756613z"  horiz-adv-x="1024" />

    
    <glyph glyph-name="wujiaoxing" unicode="&#58883;" d="M511.29133497 710.21120152L611.14551838 484.7442637 856.33650575 458.47820517 672.76024754 293.83077320999996 723.54461479 52.530527509999956 510.23604443 176.25087362 296.43579605 53.37475979999999 348.17822458 294.48291925 165.26043591 459.84889698 410.54074702 485.14424647 511.29133497 710.21120152Z"  horiz-adv-x="1024" />

    
    <glyph glyph-name="pull_up" unicode="&#58884;" d="M791.89902496 197.99159430999998l-278.31737995 301.22516156-282.43660927-299.27852154c-12.40113974-13.27886582-32.56276846-13.23541403-45.01605034 0.10428429-12.45328188 13.33100795-12.50542402 34.91785525 3.09376717 48.19672108L487.33676624 567.49689245c4.50160503 4.31041718 9.82010365 9.25523043 12.68792153 10.08081436 11.70591116 5.04909754 26.08845234 2.52020359 37.90733814-7.56930112L840.20872068 246.29259967999997c9.31606293-13.39184046 9.36820507-35.07428169-3.0850768-48.41398001-12.46197224-13.33969831-32.70181417-13.29624653-45.22461892 0.11297464z"  horiz-adv-x="1024" />

    
    <glyph glyph-name="pull_right" unicode="&#58885;" d="M325.99159431 104.10097503999998l301.22516156 278.31737995-299.27852154 282.43660927c-13.27886582 12.40113974-13.23541403 32.56276846 0.10428429 45.01605034 13.33100795 12.45328188 34.91785525 12.50542402 48.19672108-3.09376717L695.49689245 408.66323376c4.31041718-4.50160503 9.25523043-9.82010365 10.08081436-12.68792153 5.04909754-11.70591116 2.52020359-26.08845234-7.56930112-37.90733814L374.29259968 55.791279319999944c-13.39184046-9.31606293-35.07428169-9.36820507-48.41398001 3.0850768-13.33969831 12.46197224-13.29624653 32.70181417 0.11297464 45.22461892z"  horiz-adv-x="1024" />

    
    <glyph glyph-name="ziliaoguanlifenlei_huaban-copy" unicode="&#58918;" d="M409.6 759.466667v-273.066667H136.533333V759.466667h273.066667m34.133333 68.266666H102.4c-20.48 0-34.133333-13.653333-34.133333-34.133333v-341.333333c0-20.48 13.653333-34.133333 34.133333-34.133334h341.333333c20.48 0 34.133333 13.653333 34.133334 34.133334V793.6c0 20.48-13.653333 34.133333-34.133334 34.133333zM887.466667 759.466667v-273.066667h-273.066667V759.466667h273.066667m34.133333 68.266666H580.266667c-20.48 0-34.133333-13.653333-34.133334-34.133333v-341.333333c0-20.48 13.653333-34.133333 34.133334-34.133334h341.333333c20.48 0 34.133333 13.653333 34.133333 34.133334V793.6c0 20.48-13.653333 34.133333-34.133333 34.133333zM887.466667 281.6v-273.066667h-273.066667v273.066667h273.066667m34.133333 68.266667H580.266667c-20.48 0-34.133333-13.653333-34.133334-34.133334v-341.333333c0-20.48 13.653333-34.133333 34.133334-34.133333h341.333333c20.48 0 34.133333 13.653333 34.133333 34.133333V315.733333c0 20.48-13.653333 34.133333-34.133333 34.133334zM409.6 281.6v-273.066667H136.533333v273.066667h273.066667m34.133333 68.266667H102.4c-20.48 0-34.133333-13.653333-34.133333-34.133334v-341.333333c0-20.48 13.653333-34.133333 34.133333-34.133333h341.333333c20.48 0 34.133333 13.653333 34.133334 34.133333V315.733333c0 20.48-13.653333 34.133333-34.133334 34.133334z"  horiz-adv-x="1024" />

    
    <glyph glyph-name="chengjichaxun" unicode="&#59015;" d="M960.853333-11.946667l-163.84 162.133334c63.146667 75.093333 97.28 168.96 97.28 267.946666C897.706667 650.24 711.68 841.386667 477.866667 844.8 244.053333 846.506667 52.906667 658.773333 51.2 426.666667c-1.706667-233.813333 184.32-424.96 418.133333-426.666667h3.413334c102.4 0 209.92 49.493333 283.306666 109.226667l163.84-162.133334c6.826667-6.826667 17.066667-11.946667 27.306667-11.946666 10.24 0 6.826667-8.533333 13.653333-1.706667s11.946667 17.066667 11.946667 27.306667c0 10.24-3.413333 20.48-11.946667 27.306666z m-488.106666 64.853334c-203.093333 1.706667-363.52 167.253333-361.813334 368.64 1.706667 203.093333 165.546667 365.226667 368.64 363.52 199.68-3.413333 361.813333-165.546667 361.813334-366.933334-1.706667-201.386667-167.253333-365.226667-368.64-365.226666zM455.68 629.76l-136.533333-389.12h51.2l34.133333 105.813333h150.186667l37.546666-105.813333h51.2l-136.533333 389.12h-51.2z m-37.546667-238.933333l54.613334 162.133333c1.706667 6.826667 3.413333 15.36 5.12 27.306667h1.706666c1.706667-13.653333 3.413333-22.186667 5.12-27.306667l54.613334-162.133333h-121.173334z"  horiz-adv-x="1024" />

    
    <glyph glyph-name="xinjiandingdan" unicode="&#59485;" d="M779.636364 503.714909H605.090909c-32.116364 0-58.181818 26.763636-58.181818 59.810909V743.098182H226.769455a29.416727 29.416727 0 0 1-28.951273-29.928727v-658.152728c0-16.570182 12.986182-29.928727 28.951273-29.928727H430.545455c16.058182 0 29.090909-13.405091 29.090909-29.928727 0-16.523636-13.032727-29.928727-29.090909-29.928728H226.769455C178.641455-34.769455 139.636364 5.445818 139.636364 54.970182V713.169455C139.636364 762.740364 178.641455 802.909091 226.769455 802.909091h354.210909c23.179636 0 45.335273-9.448727 61.719272-26.298182l169.565091-174.312727c16.337455-16.849455 25.553455-39.656727 25.553455-63.488v-154.624c0-16.523636-13.032727-29.928727-29.090909-29.928727a29.509818 29.509818 0 0 0-29.090909 29.928727V503.714909z m-11.962182 59.810909L605.090909 730.670545v-167.098181h162.583273zM605.090909 204.520727v156.113455a23.272727 23.272727 0 0 0 23.272727 23.272727h11.636364a23.272727 23.272727 0 0 0 23.272727-23.272727v-156.113455h151.272728a23.272727 23.272727 0 0 0 23.272727-23.272727v-13.032727a23.272727 23.272727 0 0 0-23.272727-23.272728h-151.272728V-11.636364a23.272727 23.272727 0 0 0-23.272727-23.272727h-11.636364a23.272727 23.272727 0 0 0-23.272727 23.272727v156.532364H453.818182a23.272727 23.272727 0 0 0-23.272727 23.272727v13.079273a23.272727 23.272727 0 0 0 23.272727 23.272727H605.090909z"  horiz-adv-x="1024" />

    
    <glyph glyph-name="kecheng1" unicode="&#59163;" d="M786 832H238c-66.3 0-120-53.8-120-120.1V56c0-66.3 53.7-120.1 120-120.1h548c66.3 0 120 53.8 120 120.1V711.9C906 778.2 852.3 832 786 832zM188 56.1V711.9c0 27.6 22.4 50 50 50h94.4V6H238c-27.6 0-50 22.5-50 50.1z m648 0c0-27.6-22.4-50-50-50H402.4V762h194.5v-293.6l73.6 48.5 77.2-48.5V762H786c27.6 0 50-22.4 50-50v-655.9z"  horiz-adv-x="1024" />

    
    <glyph glyph-name="huifang" unicode="&#58908;" d="M471.7 358.4l116.2-67c2.8-1.6 2.8-5.6 0-7.2l-116.2-67c-2.8-1.6-6.2 0.4-6.2 3.6v134c-0.1 3.2 3.4 5.2 6.2 3.6zM106.2-75.1C47.6-75.1 0-27.5 0 31.1V736.9C0 795.5 47.6 843.1 106.2 843.1h811.6c58.6 0 106.2-47.6 106.2-106.2V31c0-58.6-47.6-106.2-106.2-106.2H106.2z m-57 106.2c0-15.1 6-29.4 16.8-40.2C76.8-20 91.1-26 106.2-26h811.6c15.1 0 29.4 6 40.2 16.8 10.8 10.8 16.8 25.1 16.8 40.2V602.4H49.2v-571.3z m838.2 620.5h87.4v85.3c0 15.1-6 29.4-16.8 40.2-10.8 10.9-25.1 16.9-40.2 16.9h-75.4l45-142.4zM106.2 794c-15.1 0-29.4-6-40.2-16.8-10.8-10.8-16.8-25.1-16.8-40.2v-85.3h122.2L126.3 794h-20.1z m615.1-142.4h114.5l-45 142.4H676.2l45.1-142.4z m-166.1 0h114.5l-45 142.4H510.1l45.1-142.4z m-166.2 0h114.5l-45 142.4H344l45-142.4z m-166.1 0h114.5l-45 142.4H177.9l45-142.4zM508.1 55c-105.4 0-198.1 71.2-225.4 173.1l-0.4 1.5h50.8l0.3-0.8C358.9 154.1 429.1 104 508.1 104c101.8 0 184.6 82.7 184.6 184.4 0 101.8-82.8 184.6-184.6 184.6-52.3 0-102.3-22.3-137.2-61.1l-6.6-7.3 48.6-48.5H282.6V486.2l46.9-46.9 8.3 8.6c44 47 106 73.9 170.1 73.9 129 0 233.9-104.7 233.9-233.5 0-128.6-104.9-233.3-233.7-233.3z"  horiz-adv-x="1024" />

    
    <glyph glyph-name="exam" unicode="&#58896;" d="M700.8-51.200000000000045H140.8c-35.2 0-60.8 28.8-60.8 60.8V755.2c0 35.2 28.8 60.8 60.8 60.8h560c35.2 0 60.8-28.8 60.8-60.8v-121.6h-54.4V755.2c0 3.2-3.2 6.4-6.4 6.4H140.8c-3.2 0-6.4-3.2-6.4-6.4v-745.6c0-3.2 3.2-6.4 6.4-6.4h560c3.2 0 6.4 3.2 6.4 6.4v112h54.4v-112c0-32-28.8-60.8-60.8-60.8z m0 0M403.2 291.20000000000005H281.6c-12.8 0-25.6 12.8-25.6 28.8 0 12.8 12.8 28.8 28.8 28.8h118.4c16 0 28.8-12.8 28.8-28.8-3.2-16-12.8-28.8-28.8-28.8z m76.8-243.2c-6.4 0-12.8 3.2-16 6.4-9.6 6.4-12.8 16-9.6 28.8l41.6 182.4c0 3.2 3.2 9.6 6.4 12.8l275.2 336c3.2 6.4 9.6 9.6 16 9.6 76.8 9.6 140.8-41.6 150.4-112 0-6.4 0-12.8-6.4-19.2L672 137.60000000000002c-3.2-3.2-6.4-6.4-12.8-9.6l-169.6-73.6c-3.2-3.2-6.4-6.4-9.6-6.4z m67.2 195.2l-28.8-121.6 112 48 256 336c-9.6 35.2-41.6 57.6-80 57.6l-259.2-320z m0 0M851.2 390.4c-12.8 0-25.6 9.6-28.8 22.4-3.2 19.2-12.8 41.6-32 51.2-16 12.8-38.4 16-57.6 16-16 0-28.8 9.6-32 22.4 0 16 9.6 28.8 22.4 32 35.2 3.2 70.4-3.2 99.2-25.6 28.8-19.2 48-54.4 51.2-89.6 0-16-9.6-28.8-22.4-28.8 3.2 0 3.2 0 0 0z m-214.4-249.6c-12.8 0-25.6 9.6-28.8 22.4-3.2 16-12.8 32-25.6 44.8-12.8 12.8-32 16-48 12.8-16 0-28.8 9.6-32 22.4 0 16 9.6 28.8 22.4 32 32 3.2 64-3.2 89.6-22.4 25.6-19.2 41.6-48 48-80 0-16-9.6-28.8-22.4-32h-3.2zM544 438.4H281.6c-16 0-28.8 12.8-28.8 28.8 0 12.8 12.8 28.8 28.8 28.8H544c16 0 28.8-12.8 28.8-28.8 0-19.2-12.8-28.8-28.8-28.8z m0 140.8H281.6c-12.8 0-25.6 12.8-25.6 28.8 0 12.8 12.8 28.8 28.8 28.8H544c16 0 28.8-12.8 28.8-28.8s-12.8-28.8-28.8-28.8z m0 0"  horiz-adv-x="1024" />

    
    <glyph glyph-name="shangchuan" unicode="&#59162;" d="M914.368 684.8c-57.6 128-185.6 211.2-326.4 211.2-192 0-352-153.6-352-339.2-121.6-19.2-217.6-121.6-217.6-243.2 0-140.8 115.2-249.6 249.6-249.6h89.6c6.4 0 19.2 6.4 25.6 12.8 6.4 6.4 12.8 12.8 12.8 25.6 0 6.4-6.4 19.2-12.8 25.6H267.968c-102.4 0-185.6 83.2-185.6 179.2 0 102.4 76.8 179.2 179.2 179.2 19.2 0 32 12.8 32 32v25.6c6.4 160 134.4 288 294.4 288 121.6 0 230.4-76.8 268.8-185.6 6.4-12.8 12.8-19.2 25.6-19.2 121.6-12.8 217.6-115.2 217.6-243.2 0-134.4-108.8-249.6-243.2-249.6h-38.4c-6.4 0-19.2-6.4-25.6-12.8-6.4-6.4-12.8-12.8-12.8-25.6 0-6.4 6.4-19.2 12.8-25.6 6.4-6.4 12.8-12.8 25.6-12.8h38.4c172.8 0 307.2 140.8 307.2 313.6 6.4 160-102.4 288-249.6 313.6zM651.968 307.2l-12.8 12.8h-25.6c-6.4 0-6.4-6.4-12.8-6.4l-128-121.6c-6.4-12.8-6.4-25.6-6.4-38.4 6.4-12.8 12.8-19.2 25.6-25.6 12.8 0 25.6 0 32 6.4l64 64v-300.8c6.4-12.8 19.2-25.6 38.4-25.6s32 12.8 32 32v300.8l64-64c6.4-6.4 12.8-12.8 25.6-12.8 6.4 0 19.2 6.4 25.6 12.8 6.4 6.4 12.8 12.8 12.8 25.6 0 6.4-6.4 19.2-12.8 25.6l-121.6 115.2z"  horiz-adv-x="1216" />

    
    <glyph glyph-name="shanchu" unicode="&#58891;" d="M512 864C246.4 864 32 649.6 32 384s214.4-480 480-480 480 214.4 480 480S777.6 864 512 864m201.6-681.6c-12.8-12.8-35.2-12.8-48 0L512 336 358.4 182.4c-12.8-12.8-35.2-12.8-48 0-12.8 12.8-12.8 35.2 0 48L464 384 310.4 537.6c-12.8 12.8-12.8 35.2 0 48 12.8 12.8 35.2 12.8 48 0L512 432l153.6 153.6c12.8 12.8 35.2 12.8 48 0 12.8-12.8 12.8-35.2 0-48L560 384l153.6-153.6c16-12.8 16-35.2 0-48m0 0z"  horiz-adv-x="1024" />

    
    <glyph glyph-name="quanping" unicode="&#58944;" d="M664.035 486.618l244.223 243.378-0.837-137.922c-0.335-11.437 8.912-21.527 20.351-21.191h14.63c11.438 0.335 21.025 7.065 21.193 18.67l0.672 205.367c0 0.171 0.335 10.934 0.335 10.934 0.17 5.716-1.179 10.934-4.879 14.63-3.7 3.702-8.742 6.055-14.633 5.886l-10.428-0.171c-0.169 0-0.331 0-0.501-0.171l-203.69 0.846c-11.438-0.336-21.025-9.76-21.193-21.361v-14.633c1.685-13.625 12.446-21.529 23.884-21.193l134.219-0.335L623.83 526.81c-11.101-11.104-11.101-29.095 0-40.197a28.13 28.13 0 0 1 40.203 0h-0.003M356.233 257.194L111.84 14.65l0.842 137.253c0.336 11.435-8.918 21.523-20.355 21.193h-15.47c-11.438-0.335-21.025-7.065-21.193-18.672l-0.672-205.536c0-0.171-0.335-10.934-0.335-10.934-0.171-5.722 1.18-10.934 4.875-14.63 3.7-3.7 8.746-6.055 14.633-5.886l10.427 0.17c0.171 0 0.336 0 0.507 0.171l204.532-0.843c11.435 0.336 21.025 9.756 21.193 21.361v14.63c-1.683 13.625-12.451 21.529-23.887 21.193l-134.222 0.335 243.38 242.539c11.104 11.104 11.104 29.101 0 40.203-10.929 11.268-28.757 11.268-39.857-0.001m608.033-308.305l-0.507 205.536c-0.336 11.438-9.76 18.335-21.194 18.672h-14.629c-11.439 0.331-20.521-9.759-20.356-21.193l0.843-137.927-244.393 243.214c-11.104 11.104-29.099 11.104-40.203 0-11.097-11.101-11.097-29.099 0-40.203l243.386-242.538-134.22-0.335c-11.438 0.335-22.034-7.739-23.887-21.193v-14.633c0.335-11.437 9.76-21.025 21.193-21.361l203.69 0.843c0.17 0 0.335-0.17 0.507-0.17l10.428-0.171c5.716-0.17 10.934 2.016 14.63 5.886 3.698 3.7 5.042 8.912 4.875 14.63 0 0-0.169 10.764-0.169 10.934l0.004 0.002M152.885 769.355l134.22 0.335c11.435-0.335 22.031 7.739 23.883 21.193V805.519c-0.336 11.437-9.753 21.025-21.193 21.36l-204.694-0.842c-0.17 0-0.336 0.171-0.509 0.171l-10.426 0.169c-5.722 0.17-10.934-2.015-14.633-5.885-3.698-3.7-5.05-8.912-4.875-14.633 0 0 0.335-10.763 0.335-10.933l0.502-205.536c0.171-11.435 9.759-18.335 21.193-18.667h15.475c11.437-0.335 20.519 9.753 20.349 21.191l-0.671 137.248 244.224-242.709c11.097-11.104 29.094-11.104 40.196 0 11.104 11.101 11.104 29.099 0 40.203l-243.38 242.703m0.004-0.004z"  horiz-adv-x="1024" />

    
    <glyph glyph-name="icon-ASSIGN_HOMEWORK" unicode="&#58907;" d="M743.92462222-49.272414819999995H135.28936297c-37.62251852 0-62.74465185 25.12213333-62.74465186 62.74465185V766.40805925c0 37.62251852 25.12213333 62.74465185 62.74465186 62.74465186h608.63525925c31.43300741 0 62.74465185-25.12213333 62.74465186-62.74465186v-125.4893037h62.74465184V766.40805925c0 69.05552592-56.43377778 125.4893037-125.4893037 125.48930371H135.28936297c-69.05552592 0-125.4893037-56.43377778-125.48930372-125.48930371v-752.93582222c0-69.05552592 56.43377778-125.4893037 125.48930372-125.4893037h608.63525925c69.05552592 0 125.4893037 56.43377778 125.4893037 125.4893037h-62.74465184c0-37.62251852-31.31164445-62.74465185-62.74465186-62.74465185z m0 0M643.55745185 138.96154074000003L624.74619259 38.59437035999997l94.0562963 50.24426667-75.24503704 50.12290371z m37.62251852 414.09042962v31.43300742c0 6.31087408-6.31087408 18.81125925-12.50038519 18.81125925H210.65576297c-6.31087408-6.31087408-12.50038518-12.50038518-12.50038519-18.81125925v-31.43300742c0-6.31087408 6.31087408-18.81125925 12.50038519-18.81125925H662.49007408c12.50038518 0 18.6898963 6.31087408 18.68989629 18.81125925z m-62.74465185-188.23395555v31.31164444c0 6.31087408-6.31087408 18.81125925-12.50038519 18.81125926H210.65576297c-6.31087408-6.31087408-12.50038518-12.50038518-12.50038519-18.81125926v-31.31164444c0-6.31087408 6.31087408-18.81125925 12.50038519-18.81125926h389.08965925c12.50038518 0 18.6898963 6.31087408 18.6898963 18.81125926z m-407.77955555-144.30056296c-6.31087408 0-12.50038518-6.31087408-12.50038519-18.81125927v-31.4330074c0-6.31087408 6.31087408-18.81125925 12.50038519-18.81125926h263.47899258c6.31087408 0 12.50038518 6.31087408 12.5003852 18.81125926v31.4330074c0 6.31087408-6.31087408 18.81125925-12.5003852 18.81125927H210.65576297z m778.05795555 338.84539259c6.18951111 0 6.18951111 0 0 0l6.31087407-6.31087408-6.31087407 6.31087408z m6.18951111-6.31087408c-25.12213333 12.50038518-50.24426667 6.31087408-62.74465185-12.50038518L662.36871111 157.77279999999996l75.24503704-56.43377778L1007.52497778 483.99644444c12.50038518 25.12213333 6.18951111 56.55514075-12.62174815 69.05552592z m0 0M806.66927408 640.91875555c0-17.3549037 14.0781037-31.31164445 31.4330074-31.31164444 17.3549037 0 31.43300741 14.0781037 31.43300741 31.31164444 0 17.3549037-14.0781037 31.43300741-31.43300741 31.43300741-17.3549037 0-31.43300741-14.0781037-31.4330074-31.43300741z m0 0M806.66927408 13.472237029999974c0-17.3549037 14.0781037-31.31164445 31.4330074-31.31164445 17.3549037 0 31.43300741 14.0781037 31.43300741 31.31164445 0 17.3549037-14.0781037 31.43300741-31.43300741 31.43300741-17.3549037-0.12136297-31.43300741-14.0781037-31.4330074-31.43300741z m0 0"  horiz-adv-x="1024" />

    
    <glyph glyph-name="shanchu1" unicode="&#58938;" d="M799.2 21.600000000000023c0-34.4-28-62.4-62.4-62.4H287.2c-34.4 0-62.4 28-62.4 62.4V684h574.4v-662.4zM349.6 796c0 7.2 5.6 12.8 12.8 12.8h300c7.2 0 12.8-5.6 12.8-12.8v-37.6H349.6v37.6z m636.8-37.6H749.6v37.6c0 48-39.2 87.2-87.2 87.2H362.4c-48 0-87.2-39.2-87.2-87.2v-37.6H37.6c-20.8 0-37.6-16.8-37.6-37.6s16.8-37.6 37.6-37.6h112v-661.6c0-76 61.6-137.6 137.6-137.6h449.6c76 0 137.6 61.6 137.6 137.6V684h112c20.8 0 37.6 16.8 37.6 37.6s-16.8 36.8-37.6 36.8zM512 72c20.8 0 37.6 16.8 37.6 37.6v400c0 20.8-16.8 37.6-37.6 37.6s-37.6-16.8-37.6-37.6v-400c0-20.8 16.8-37.6 37.6-37.6m-175.2 0c20.8 0 37.6 16.8 37.6 37.6v400c0 20.8-16.8 37.6-37.6 37.6s-37.6-16.8-37.6-37.6v-400c0.8-20.8 17.6-37.6 37.6-37.6m350.4 0c20.8 0 37.6 16.8 37.6 37.6v400c0 20.8-16.8 37.6-37.6 37.6s-37.6-16.8-37.6-37.6v-400c0-20.8 16.8-37.6 37.6-37.6"  horiz-adv-x="1024" />

    
    <glyph glyph-name="quanxianma" unicode="&#58898;" d="M666.710884 36.374669c115.062268 57.62145 187.856765 175.21256 187.856765 304.002823V705.795026l-339.948492 84.896807-339.948492-84.896807v-365.598166C174.670665 211.406597 247.465161 93.815488 362.708061 36.194038l151.911096-76.045864 152.091727 76.226495z m29.804198-59.789028l-166.90351-83.451755c-9.392838-4.696419-20.41136-4.696419-29.804199 0L332.903863-23.414359C195.082025 45.586876 108.01764 186.298818 108.01764 340.377492V731.805962c0 15.353678 10.476627 28.720409 25.28841 32.33304l373.365321 93.386488c5.238314 1.264421 10.83789 1.264421 16.256835 0L896.112895 764.139002c14.811783-3.793262 25.288411-16.979361 25.28841-32.33304v-391.42847c-0.180632-154.078673-87.064385-294.790616-224.886223-363.791851z m0 0M605.838067 482.895749c0 50.39619-40.82272 91.038278-91.21891 91.038278s-91.038278-40.82272-91.038279-91.21891 40.82272-91.038278 91.21891-91.038278c50.215558 0.180632 91.038278 41.003352 91.038279 91.21891z m66.653025 0c1.083789-57.079555-28.720409-110.365849-78.03281-139.26689-49.312401-28.901041-110.365849-28.901041-159.67825 0-49.312401 28.901041-79.116599 82.187335-77.852179 139.447521 0 87.064385 70.626918 157.691304 157.871935 157.691304 87.064385 0 157.691304-70.626918 157.691304-157.871935z m0 0M481.38296 327.372023c0 18.424413 14.992415 33.416828 33.416828 33.416829s33.416828-14.992415 33.416829-33.416829v-186.592344c0-18.424413-14.992415-33.416828-33.416829-33.416828s-33.416828 14.992415-33.416828 33.416828V327.372023z m0 0M545.868407 216.283648c-18.424413 0-33.416828 14.992415-33.416828 33.416828s14.992415 33.416828 33.416828 33.416829h62.317869c18.424413 0 33.416828-14.992415 33.416829-33.416829s-14.992415-33.416828-33.416829-33.416828h-62.317869z m0 0"  horiz-adv-x="1024" />

    
    <glyph glyph-name="daochu1" unicode="&#58888;" d="M646.794 754.789h202.243c9.31915 0 17.259-3.29755 23.8293-9.98657 6.60498-6.49127 9.90253-14.4212 9.90253-23.7947V518.819c0-9.37354-3.29755-17.3035-9.89758-23.8986-6.57532-6.59015-14.5151-9.8877-23.8343-9.8877-9.31421 0-17.254 3.29755-23.8293 9.8877-6.60992 6.59509-9.89264 14.525-9.89264 23.8986V639.636L535.622 360.00300000000004c-6.47644-6.49127-14.3767-9.78882-23.7008-9.78882-9.66028 0-17.6841 3.19867-24.1013 9.58118-6.41711 6.49127-9.60095 14.525-9.60095 24.1013 0 9.37354 3.22833 17.2046 9.72455 23.7947l279.698 279.634h-120.877c-9.31421 0-17.2343 3.29755-23.8491 9.8877-6.56049 6.59509-9.87781 14.525-9.87781 23.7947 0 9.37354 3.31732 17.3035 9.87781 23.8936 6.61487 6.59015 14.5349 9.8877 23.8442 9.8877h0.0346072Zm-404.506 0h235.955c9.30927 0 17.2293-3.29755 23.8442-9.98657 6.57037-6.49127 9.87781-14.4212 9.87781-23.7947 0-9.26971-3.31238-17.2046-9.87781-23.7947-6.61487-6.59015-14.5349-9.8877-23.8442-9.8877H242.288c-9.30432 0-17.254-3.2926-23.8145-9.8877-6.62476-6.59015-9.89758-14.5201-9.89758-23.8936v-539.295c0-9.26971 3.27283-17.1996 9.89758-23.7898 6.56049-6.59015 14.5102-9.8877 23.8145-9.8877h539.324c9.30927 0 17.2293 3.29755 23.8442 9.8877 6.57037 6.59015 9.87781 14.525 9.87781 23.7947V350.21400000000005c0 9.26971 3.31238 17.1996 9.87781 23.7898 6.60992 6.59509 14.5399 9.8877 23.8541 9.8877 9.30927 0 17.2293-3.2926 23.8442-9.8877 6.56049-6.59015 9.87781-14.5201 9.87781-23.7898v-235.97c0-27.908-9.87781-51.7028-29.6235-71.4781-19.7556-19.7754-43.5998-29.5593-71.488-29.5593H242.333c-27.9229 0-51.7275 9.78882-71.493 29.5642-19.7556 19.7754-29.6334 43.5652-29.6334 71.4781V653.539c0 27.913 9.87781 51.7028 29.6334 71.4781 19.7655 19.7754 43.5701 29.6631 71.493 29.6631L242.288 754.789Z"  horiz-adv-x="1024" />

    
    <glyph glyph-name="xialajiantou" unicode="&#58886;" d="M959.52557 641.70227L511.674589 193.66504699999996 63.824631 641.70227Z"  horiz-adv-x="1024" />

    
    <glyph glyph-name="bianji" unicode="&#58903;" d="M475.428571 749.714286h-365.714285c-21.942857 0-36.571429 14.628571-36.571429 36.571428s14.628571 36.571429 36.571429 36.571429h365.714285c21.942857 0 36.571429-14.628571 36.571429-36.571429s-14.628571-36.571429-36.571429-36.571428z m438.857143-804.571429h-804.571428c-21.942857 0-36.571429 14.628571-36.571429 36.571429s14.628571 36.571429 36.571429 36.571428h804.571428c21.942857 0 36.571429-14.628571 36.571429-36.571428s-14.628571-36.571429-36.571429-36.571429z m-804.571428 0c-21.942857 0-36.571429 14.628571-36.571429 36.571429v804.571428c0 21.942857 14.628571 36.571429 36.571429 36.571429s36.571429-14.628571 36.571428-36.571429v-804.571428c0-21.942857-14.628571-36.571429-36.571428-36.571429z m804.571428 0c-21.942857 0-36.571429 14.628571-36.571428 36.571429v365.714285c0 21.942857 14.628571 36.571429 36.571428 36.571429s36.571429-14.628571 36.571429-36.571429v-365.714285c0-21.942857-14.628571-36.571429-36.571429-36.571429z m-14.628571 768l-570.514286-570.514286c-14.628571-14.628571-36.571429-14.628571-51.2 0s-14.628571 36.571429 0 51.2l570.514286 570.514286c14.628571 14.628571 36.571429 14.628571 51.2 0 14.628571-14.628571 14.628571-36.571429 0-51.2z"  horiz-adv-x="1024" />

    
    <glyph glyph-name="xiazaimoban" unicode="&#59101;" d="M728.015 187.274l-67.537 0.102c-17.395 0-31.517 13.405-31.517 29.88 0 14.019 11.87 25.275 26.606 25.377l72.755 0.103c69.788 0 129.548 50.448 134.153 116.45 4.81 69.071-50.755 128.217-122.487 132.72l-48.095 3.07c-0.102 0-0.102 0.101-0.204 0.101l-5.833 45.434c-10.745 83.193-85.444 146.023-173.958 146.023S348.684 623.807 337.939 540.51l-5.832-45.434c0-0.102-0.103-0.102-0.205-0.102l-48.094-3.07c-71.63-4.4-127.194-63.546-122.385-132.617 4.605-66.104 64.467-116.45 134.152-116.45l70.3-0.102c16.066 0 29.061-12.382 29.061-27.629s-12.995-27.629-29.06-27.629l-69.994-0.102c-105.193 0-192.888 79.816-193.298 179.586-0.41 95.78 77.974 174.06 177.233 180.405 0.102 0 0.102 0.103 0.102 0.103 14.224 109.696 112.561 194.628 231.979 194.628s217.857-85.035 232.08-194.628c0-0.103 0.103-0.103 0.103-0.103 99.156-6.344 177.54-84.625 177.232-180.405-0.409-99.872-88.104-179.688-193.298-179.688zM533.49 7.38c-8.289-8.084-21.694-8.084-29.982 0L398.109 110.22c-10.438 10.233-10.438 26.708 0 36.941s27.321 10.233 37.861 0l55.769-54.439V384.358c0 14.428 11.972 26.094 26.708 26.094s26.707-11.666 26.707-26.094v-291.636l55.77 54.439c10.437 10.233 27.321 10.233 37.86 0 10.438-10.233 10.438-26.708 0-36.94L533.49 7.38z"  horiz-adv-x="1024" />

    
    <glyph glyph-name="jiaoxuejihua" unicode="&#59004;" d="M853.8368 34.92352c-17.37216 0-31.488-14.24384-31.488-31.86688v-50.98496c0-8.43264-10.25024-15.93344-21.92896-15.93344H118.50752c-11.65312 0-21.9648 7.3728-21.9648 15.93344V815.80032c0 8.43264 10.31168 15.93344 21.9648 15.93344h682.09664c11.6224 0 21.86752-7.3728 21.86752-15.93344v-129.52064c0-17.61792 14.12096-31.92832 31.488-31.92832 17.42848 0 31.488 14.30528 31.488 31.92832V815.9232c0 44.05248-38.11328 79.91296-85.03296 79.91296H118.50752C71.58272 895.83616 33.43872 859.97568 33.43872 815.9232v-863.8464c0-43.98592 38.144-79.91296 85.0688-79.91296h681.91232c46.91968 0 85.03296 35.93216 84.91008 79.91296v50.98496c-0.00512 17.61792-14.12608 31.86176-31.49312 31.86176zM583.168 416.24064H204.47744c-17.39776 0-31.488-14.55616-31.488-32.24064 0-17.61792 14.09024-32.24064 31.488-32.24064H583.168c17.42848 0 31.488 14.6176 31.488 32.24064 0.00512 17.68448-14.0544 32.24064-31.488 32.24064z m126.08512 191.81568c0 17.61792-14.05952 32.17408-31.488 32.17408H204.47744c-17.39776 0-31.488-14.55616-31.488-32.17408 0-17.68448 14.09024-32.24064 31.488-32.24064h473.472c17.4336 0 31.30368 14.55616 31.30368 32.24064zM583.168 192.25088H204.47744c-17.39776 0-31.488-14.6176-31.488-32.24064 0-17.68448 14.09024-32.24064 31.488-32.24064H583.168c17.42848 0 31.488 14.55616 31.488 32.24064 0.00512 17.61792-14.0544 32.24064-31.488 32.24064z m391.6288 387.87584c-15.11936 8.87296-34.36544 3.6864-43.1104-11.68384l-269.78816-473.47712c-8.74496-15.37024-3.62496-34.86208 11.4944-43.73504a31.22176 31.22176 0 0 1 15.744-4.31104 31.68256 31.68256 0 0 1 27.42784 15.92832l269.72672 473.53856c8.75008 15.3088 3.62496 34.80576-11.4944 43.74016z"  horiz-adv-x="1024" />

    
    <glyph glyph-name="wodedangxuan" unicode="&#58892;" d="M907.264-70.65599999999995H114.688c-16.384 0-32.768 8.192-43.008 20.48-10.24 14.336-14.336 30.72-10.24 47.104 40.96 208.896 210.944 364.544 415.744 380.928 68.608 0 142.848-8.704 217.088-38.912 21.504-8.704 28.672-14.336 40.96-20.48 118.784-67.584 200.704-184.32 227.328-321.536 4.096-16.384 0-32.768-12.288-47.104-10.24-12.288-26.624-20.48-43.008-20.48zM115.712-37.375999999999976c-6.656 0-12.8 2.56-16.384 7.168-0.512 0.512-0.512 1.024-1.024 1.536-5.12 5.12-5.632 13.824-4.608 18.944 37.888 194.56 197.12 340.48 387.584 354.304h15.36c91.648 0 179.712-28.672 222.72-55.808C832 221.18399999999997 907.264 115.20000000000005 930.816-9.727999999999952c1.024-7.168-0.512-13.824-5.632-20.48-3.584-4.608-9.728-7.168-16.384-7.168H115.712zM496.64 332.288c89.088 0 174.592-27.648 216.064-53.76h0.512c109.568-65.024 182.272-167.936 204.8-289.792 0.512-2.56 0.512-6.144-3.584-10.752-0.512-1.024-3.072-2.048-6.144-2.048H115.712c-3.072 0-5.632 1.024-6.144 2.048-0.512 1.024-1.536 2.048-2.56 2.56-1.024 1.024-2.048 4.096-1.024 7.68 36.864 188.928 190.976 330.24 375.808 344.064 4.608-0.512 9.728 0 14.848 0m0 25.6c-5.12 0-10.752 0-15.872-0.512C284.16 343.03999999999996 120.32 193.53599999999994 81.408-7.168000000000006c-2.048-10.24 0-22.528 8.192-30.72 6.144-8.192 16.384-12.288 26.624-12.288H908.8c10.24 0 20.48 4.096 26.624 12.288 6.144 8.192 10.24 18.432 8.192 30.72-24.576 131.072-102.4 238.592-217.088 307.2-43.52 27.136-132.608 57.856-229.888 57.856zM512 359.424c-129.024 0-235.52 106.496-235.52 235.52S382.976 830.4639999999999 512 830.4639999999999s235.52-106.496 235.52-235.52S641.024 359.424 512 359.424zM512 392.704c-111.616 0-202.24 90.624-202.24 202.24S400.384 797.184 512 797.184s202.24-90.624 202.24-202.24-90.624-202.24-202.24-202.24zM512 784.384c104.448 0 189.44-84.992 189.44-189.44S616.448 405.504 512 405.504s-189.44 84.992-189.44 189.44 84.992 189.44 189.44 189.44m0 25.6c-118.784 0-215.04-96.256-215.04-215.04s96.256-215.04 215.04-215.04 215.04 96.256 215.04 215.04S630.784 809.984 512 809.984z"  horiz-adv-x="1024" />

    
    <glyph glyph-name="iLinkapp-houqitubiaoyouxiugai" unicode="&#58979;" d="M417.6 168.6L170.1 398.7l-64-68.9 316.4-294.1 15 16.1 49 52.8L915.4 566l-68.9 64z"  horiz-adv-x="1024" />

    
    <glyph glyph-name="touping" unicode="&#58890;" d="M853.015 81.455h-161.42a34.91 34.91 0 0 0 0 69.818h161.42a54.69 54.69 0 0 1 54.621 54.62V631.925a54.69 54.69 0 0 1-54.62 54.621H170.96a54.668 54.668 0 0 1-54.597-54.62v-426.031a54.668 54.668 0 0 1 54.597-54.621H312.32a34.91 34.91 0 0 0 0-69.818H170.961A124.556 124.556 0 0 0 46.545 205.894v426.03a124.556 124.556 0 0 0 124.416 124.44h682.054a124.579 124.579 0 0 0 124.44-124.44v-426.03a124.579 124.579 0 0 0-124.44-124.44zM674.91-11.636H349.091L512 197.818l162.91-209.454z"  horiz-adv-x="1024" />

    
    <glyph glyph-name="chakan" unicode="&#58880;" d="M512 96c-152.544 0-299.552 90.464-441.024 268.064a32 32 0 0 0 0 39.872C212.416 581.536 359.456 672 512 672c152.544 0 299.552-90.464 441.024-268.064a32 32 0 0 0 0-39.872C811.584 186.464 664.544 96 512 96z m0 64c124.8 0 249.728 73.696 374.72 224C761.76 534.304 636.8 608 512 608c-124.8 0-249.728-73.696-374.72-224 124.992-150.304 249.92-224 374.72-224z m0 64a160 160 0 1 0 0 320 160 160 0 0 0 0-320z m0 64a96 96 0 1 1 0 192 96 96 0 0 1 0-192z"  horiz-adv-x="1024" />

    
    <glyph glyph-name="queding" unicode="&#58906;" d="M0-128V896h1024v-1024H0zM910.222222 782.222222H113.777778v-796.444444h796.444444V782.222222zM249.912889 440.888889l176.355555-176.355556 346.282667 346.168889 81.237333-81.237333-346.282666-346.112 4.494222-4.494222-79.644444-79.644445-4.551112 4.551111-4.551111-4.551111-81.408 81.066667 4.664889 4.608-176.355555 176.355555z"  horiz-adv-x="1024" />

    
    <glyph glyph-name="chahao1" unicode="&#58887;" d="M958.003788-121.625c-12.75 0-32 6.375-38.375 19.25L510.003788 300.75 100.378788-108.75c-12.75-12.75-25.625-19.25-38.375-19.25s-32 6.375-38.375 19.25c-12.75 12.75-19.25 25.625-19.25 38.375s6.375 32 19.25 38.375L426.878788 384 17.128788 793.625C10.753788 806.375 4.378788 819.25 4.378788 832s6.375 32 19.25 38.375C30.003788 883.25 42.753788 889.625 62.003788 889.625c12.75 0 32-6.375 38.375-19.25L510.003788 467.25 919.628788 876.75C932.378788 889.625 945.128788 896 958.003788 896c12.75 0 32-6.375 38.375-19.25C1009.128788 864 1015.628788 851.25 1015.628788 838.375c0-12.75-6.375-32-19.25-38.375L593.128788 384l409.625-409.625c12.75-12.75 19.25-25.625 19.25-38.375s-6.375-32-19.25-38.375c-12.75-12.875-25.625-19.25-44.75-19.25z"  horiz-adv-x="1052" />

    
    <glyph glyph-name="yuandian" unicode="&#58894;" d="M515.232323 460.929293m-133.042424 0a133.042424 133.042424 0 1 1 266.084848 0 133.042424 133.042424 0 1 1-266.084848 0Z"  horiz-adv-x="1024" />

    
    <glyph glyph-name="xinjian" unicode="&#58895;" d="M691.717172 519.757576H497.777778V713.69697h-47.838384v-193.939394H256v-47.838384h193.939394v-193.939394h47.838384V471.919192h193.939394z"  horiz-adv-x="1024" />

    
    <glyph glyph-name="danxuankuang" unicode="&#58897;" d="M511.391852 591.439363C396.755909 591.439363 303.830859 498.514313 303.830859 383.87837s92.92505-207.560993 207.560993-207.560993 207.560993 92.92505 207.560993 207.560993c0.060815 114.635943-92.92505 207.560993-207.560993 207.560993z m0-394.384131c-103.202756 0-186.823138 83.620382-186.823138 186.823138s83.620382 186.823138 186.823138 186.823138 186.823138-83.620382 186.823138-186.823138-83.620382-186.823138-186.823138-186.823138z m0 0"  horiz-adv-x="1024" />

    
    <glyph glyph-name="toupingxuanxiang" unicode="&#58902;" d="M679.788098 242.423091H601.276161c-9.304668 0.060815-16.845706 7.662668-16.845706 16.967335s7.541038 16.906521 16.845706 16.967336h78.511937c14.656372 0 26.576078 11.919705 26.576078 26.576078V510.251574c0 14.656372-11.919705 26.576078-26.576078 26.576078H347.982421c-14.656372 0-26.576078-11.919705-26.576078-26.576078v-207.256919c0-14.656372 11.919705-26.576078 26.576078-26.576078h68.781565c9.304668-0.060815 16.845706-7.662668 16.845706-16.967336 0-9.304668-7.541038-16.906521-16.845706-16.967336H347.982421c-33.387338 0.060815-60.510749 27.123411-60.51075 60.571565V510.251574c0.060815 33.387338 27.123411 60.510749 60.51075 60.571564h331.805677c33.448153-0.060815 60.510749-27.123411 60.571565-60.571564v-207.256919c-0.060815-33.448153-27.123411-60.510749-60.571565-60.571564z m-86.661123-45.307044H434.643544l79.241716 101.925644 79.241715-101.925644z m0 0M490.532367 465.06616h124.001426c4.257038 0 7.723483 3.466445 7.723482 7.723482 0 4.257038-3.466445 7.723483-7.723482 7.723483H490.532367c-4.257038 0-7.723483-3.466445-7.723482-7.723483-0.060815-4.257038 3.466445-7.723483 7.723482-7.723482z m0-61.909491h124.001426c4.257038 0 7.723483 3.466445 7.723482 7.723483 0 4.257038-3.466445 7.723483-7.723482 7.723483H490.532367c-4.257038 0-7.723483-3.466445-7.723482-7.723483-0.060815-4.257038 3.466445-7.723483 7.723482-7.723483z m124.06224-46.644969H490.532367c-4.257038 0-7.723483-3.466445-7.723482-7.723483 0-4.257038 3.466445-7.723483 7.723482-7.723482h124.06224c4.257038 0 7.723483 3.466445 7.723483 7.723482 0 4.257038-3.466445 7.723483-7.723483 7.723483zM454.165103 494.135646l-25.542226-25.542226-10.034446 10.034446c-3.040741 2.979926-7.905927 2.979926-10.946668 0-2.979926-3.040741-2.979926-7.905927 0-10.946669l15.446965-15.446965 0.060815-0.060815c1.459556-1.459556 3.40563-2.250148 5.473334-2.250148 2.067704 0 4.013778 0.790593 5.473334 2.250148l0.060815 0.060815 30.954745 30.954745c2.919112 3.040741 2.919112 7.905927-0.12163 10.885854-2.979926 2.919112-7.784297 2.979926-10.825038 0.060815z m0-62.335195l-25.542226-25.542226-10.034446 10.034446c-3.040741 2.979926-7.905927 2.979926-10.946668 0-2.979926-3.040741-2.979926-7.905927 0-10.946668l15.446965-15.446965 0.060815-0.060815c1.459556-1.459556 3.40563-2.250148 5.473334-2.250148 2.067704 0 4.013778 0.790593 5.473334 2.250148l0.060815 0.060815 30.954745 30.954745c2.979926 3.040741 2.979926 7.905927 0 10.946668-3.040741 3.040741-7.905927 3.040741-10.946668 0z m0-62.03112l-25.542226-25.542226-10.034446 10.034446c-3.040741 2.979926-7.905927 2.979926-10.946668 0-2.979926-3.040741-2.979926-7.905927 0-10.946668l15.446965-15.446965 0.060815-0.060815c1.459556-1.459556 3.40563-2.250148 5.473334-2.250148 2.067704 0 4.013778 0.790593 5.473334 2.250148l0.060815 0.060815 30.954745 30.954745c2.979926 3.040741 2.979926 7.905927 0 10.946668-3.040741 3.040741-7.905927 3.040741-10.946668 0z m0 0"  horiz-adv-x="1024" />

    


  </font>
</defs>
</svg>
